<svg id="Layer_1" enable-background="new 0 0 480.342 480.342" height="512" viewBox="0 0 480.342 480.342" width="512" xmlns="http://www.w3.org/2000/svg"><g><g><g><path d="m240.171 120.076h-212.671c-11.046 0-20 8.954-20 20v275.858c0 11.046 8.954 20 20 20h212.671 212.671c11.046 0 20-8.954 20-20v-275.858c0-11.046-8.954-20-20-20z" fill="#bb696a"/></g><g><path d="m442.108 403.943h-201.937v-285.875c0-11.046 8.954-20 20-20h181.875z" fill="#fef2e2"/></g><g><path d="m422.077 98.068h20v305.875h-20z" fill="#ffe1ba"/></g><g><path d="m240.233 403.943h-201.937v-305.875l42.194-19.954c46.603-22.039 102.336-18.283 145.642 8.743 8.754 5.463 14.041 15.088 14.043 25.406z" fill="#fef2e2"/></g><g><path d="m240.174 112.264c-.002-10.319-5.289-19.943-14.043-25.406-7.195-4.49-14.738-8.323-22.52-11.517.842.502 1.687.997 2.52 1.517 8.754 5.463 14.041 15.088 14.043 25.406l.059 301.679h20z" fill="#ffe1ba"/></g><g><path d="m442.108 403.943h-201.937v-26.562c0-11.046 8.954-20 20-20h181.875z" fill="#ffe1ba"/></g><g><path d="m240.174 369.264c-.002-10.319-5.289-19.943-14.043-25.406-43.306-27.027-99.039-30.782-145.642-8.743l-42.194 19.954v48.875h201.885z" fill="#ffe1ba"/></g><g><path d="m80.49 335.114-42.194 19.954v2.313h199.416c-2.367-5.499-6.348-10.258-11.581-13.524-43.306-27.026-99.038-30.782-145.641-8.743z" fill="#ffc277"/></g><g><path d="m112.835 44.408h60v117.712l-30-8-30 8z" fill="#f88fa4"/></g><g><path d="m152.835 44.407v112.38l20 5.333v-117.713z" fill="#f05475"/></g></g><g><path d="m480.342 323.005v-182.929c0-15.164-12.336-27.5-27.5-27.5h-3.293l-.004-22.008h-189.374c-6.078 0-11.699 1.985-16.256 5.337-.291-.602-.59-1.201-.914-1.788-3.067-5.559-7.527-10.269-12.899-13.622-15.293-9.544-32.01-16.353-49.767-20.301v-23.286h-75v24.349c-9.682 2.473-19.094 5.84-28.052 10.077l-46.487 21.984v19.258h-3.296c-15.164 0-27.5 12.336-27.5 27.5v275.858c0 15.164 12.336 27.5 27.5 27.5h425.342c15.164 0 27.5-12.336 27.5-27.5v-76.849h-15v76.849c0 6.893-5.607 12.5-12.5 12.5h-425.342c-6.893 0-12.5-5.607-12.5-12.5v-275.858c0-6.893 5.607-12.5 12.5-12.5h3.296v283.867h418.814l-.058-283.867h3.29c6.893 0 12.5 5.607 12.5 12.5v182.929zm-360.007-271.097h45v100.45l-22.5-6-22.5 6zm-36.639 32.987c6.943-3.284 14.193-5.987 21.639-8.105v95.093l37.5-10 37.5 10v-96.285c14.883 3.664 28.919 9.567 41.825 17.621 3.208 2.002 5.873 4.818 7.708 8.143 1.835 3.326 2.806 7.096 2.806 10.903v5.687c0 .039-.003.077-.003.115v39.604h15v-29.667h.003v-9.995c.032-6.866 5.624-12.442 12.497-12.442h174.376l.003 14.51.047 229.804h-174.426c-4.5 0-8.747 1.093-12.5 3.018v-179.227h-15v165.595c-.83-.618-1.68-1.218-2.569-1.773-45.787-28.574-104.343-32.085-152.819-9.161l-31.487 14.89v-240.406zm-37.9 311.548v-36.625l37.9-17.923c43.71-20.672 96.484-17.595 137.901 7.987h-101.301v15h111.954c.272 1.396.421 31.562.421 31.562h-186.875zm201.875 0v-19.062c0-6.893 5.607-12.5 12.5-12.5h174.429l.006 31.562z"/><path d="m90.171 349.881h15v15h-15z"/><path d="m299.484 134.978h90.003v15h-90.003z" transform="matrix(1 -.008 .008 1 -1.103 2.696)"/><path d="m277.483 180.817h127.339v15h-127.339z" transform="matrix(1 -.008 .008 1 -1.461 2.671)"/><path d="m329.173 210.615h75.649v15h-75.649z" transform="matrix(1 -.008 .008 1 -1.693 2.874)"/><path d="m277.485 211.171h37.024v15h-37.024z" transform="matrix(1 -.008 .008 1 -1.713 2.339)"/><path d="m277.483 240.817h127.339v15h-127.339z" transform="matrix(1 -.008 .008 1 -1.93 2.673)"/><path d="m277.483 269.821h127.339v15h-127.339z" transform="matrix(1 -.008 .008 1 -2.162 2.681)"/><path d="m277.483 300.349h82.005v15h-82.005z" transform="matrix(1 -.011 .011 1 -3.487 3.649)"/></g></g></svg>